HIERARCHY
ROOT Hips
{
    OFFSET 0.000000 0.000000 0.000000
    CHANNELS 6 Xposition Yposition Zposition Zrotation Xrotation Yrotation
        JOINT Chest
        {
            OFFSET -0.000000 29.391830 -0.000000
            CHANNELS 3 Zrotation Xrotation Yrotation
            JOINT Neck
            {
                OFFSET -0.000000 21.536943 0.000000
                CHANNELS 3 Zrotation Xrotation Yrotation
                JOINT Head
                {
                    OFFSET -0.000000 10.450000 0.000000
                    CHANNELS 3 Zrotation Xrotation Yrotation
                    End Site
                    {
                        OFFSET -0.000000 16.150003 0.000000
                    }
                }
            }
            JOINT LeftCollar
            {
                OFFSET -0.000000 21.536943 0.000000
                CHANNELS 3 Zrotation Xrotation Yrotation
                JOINT LeftShoulder
                {
                    OFFSET 19.500000 -0.000000 0.000000
                    CHANNELS 3 Zrotation Xrotation Yrotation
                    JOINT LeftElbow
                    {
                        OFFSET 20.632557 0.000000 0.000000
                        CHANNELS 3 Zrotation Xrotation Yrotation
                        JOINT LeftWrist
                        {
                            OFFSET 24.683100 0.000000 0.000000
                            CHANNELS 3 Zrotation Xrotation Yrotation
                            End Site
                            {
                                OFFSET 0.000000 -14.250000 0.000000
                            }
                        }
                    }
                }
            }
            JOINT RightCollar
            {
                OFFSET -0.000000 21.536943 0.000000
                CHANNELS 3 Zrotation Xrotation Yrotation
                JOINT RightShoulder
                {
                    OFFSET -19.500000 0.000000 0.000000
                    CHANNELS 3 Zrotation Xrotation Yrotation
                    JOINT RightElbow
                    {
                        OFFSET -20.632557 0.000000 0.000000
                        CHANNELS 3 Zrotation Xrotation Yrotation
                        JOINT RightWrist
                        {
                            OFFSET -24.683100 0.000000 0.000000
                            CHANNELS 3 Zrotation Xrotation Yrotation
                            End Site
                            {
                                OFFSET -0.000000 -14.250000 0.000000
                            }
                        }
                    }
                }
            }
        }
    JOINT LeftHip
    {
        OFFSET 11.400001 0.000000 0.000000
        CHANNELS 3 Zrotation Xrotation Yrotation
        JOINT LeftKnee
        {
            OFFSET -0.000000 -38.134491 0.000000
            CHANNELS 3 Zrotation Xrotation Yrotation
            JOINT LeftAnkle
            {
                OFFSET -0.000000 -39.452507 0.000000
                CHANNELS 3 Zrotation Xrotation Yrotation
                End Site
                {
                    OFFSET -0.000000 -4.750000 16.150003
                }
            }
        }
    }
    JOINT RightHip
    {
        OFFSET -11.400001 0.000000 0.000000
        CHANNELS 3 Zrotation Xrotation Yrotation
        JOINT RightKnee
        {
            OFFSET -0.000000 -38.134491 0.000000
            CHANNELS 3 Zrotation Xrotation Yrotation
            JOINT RightAnkle
            {
                OFFSET -0.000000 -39.452507 0.000000
                CHANNELS 3 Zrotation Xrotation Yrotation
                End Site
                {
                    OFFSET -0.000000 -4.750000 16.150003
                }
            }
        }
    }
}
MOTION
Frames:    10
Frame Time:    0.010000
-58.355534    84.489952    -60.700710    -3.072656    1.769017    24.027550    -0.270110    9.503455    -1.031763    -15.785645    1.553260    2.345995    10.910520    -14.677337    3.683484    -14.593348    -2.046775    16.035646    -30.159668    46.401134    -30.452879    8.432497    -10.745583    -103.960365    106.980026    37.661343    43.901375    25.787172    -1.112475    -4.770795    -29.810516    65.640350    81.265244    -35.110970    -13.884303    41.993347    -124.898636    -7.824048    13.818048    -1.058678    -11.102167    2.245694    2.473728    28.303024    -3.117644    4.273059    -17.172600    8.889708    -4.252450    -15.868598    9.315078    -3.284771    29.211269    -0.678972    11.593597    -17.019556    0.446584    
-58.355534    84.489952    -60.700710    -3.072652    1.769043    24.027554    -0.281323    9.521554    -1.030730    -15.916509    1.342816    2.482314    11.053128    -14.049198    3.668912    -14.613619    -2.093866    16.384224    -30.130259    46.359810    -30.562233    8.466623    -10.827732    -103.940704    106.928337    37.633945    43.868282    25.748016    -1.069606    -4.499324    -29.950747    65.693672    81.408852    -35.036053    -13.872010    42.072659    -124.911530    -7.825026    13.857983    -1.058705    -11.102171    2.245751    2.473793    28.302992    -3.117705    4.273033    -17.172577    8.889660    -4.252464    -15.868608    9.315091    -3.284781    29.211248    -0.679002    11.593609    -17.019526    0.446584    
-58.325966    84.326324    -60.611050    -2.805845    1.563414    24.073454    -0.293865    10.044738    -1.156809    -15.716191    1.675329    2.557609    10.790633    -14.303898    3.689242    -14.669883    -2.131058    16.452702    -29.269377    46.814247    -31.569771    8.585855    -11.092459    -103.717308    107.666412    38.130276    43.892132    26.051594    -1.021071    -4.165680    -28.727346    65.376244    79.824905    -34.596397    -13.651339    42.368763    -125.134933    -8.216663    14.180920    -1.171928    -10.888650    1.973883    2.301623    28.540274    -2.773649    4.253890    -17.278854    8.721189    -4.396950    -16.497593    9.568836    -2.960328    30.980387    -1.536691    11.356352    -17.501841    1.271312    
-58.320076    84.275284    -60.572063    -2.695479    1.492468    24.068645    -0.307985    10.250481    -1.217867    -15.696861    1.744505    2.623199    10.740565    -14.330453    3.741146    -14.682858    -2.164074    16.534517    -28.998737    46.930340    -31.915663    8.700141    -11.160765    -103.648720    108.011383    38.561352    44.127796    26.178188    -0.973987    -3.977857    -28.399658    65.182159    79.370804    -34.375519    -13.594586    42.401794    -125.197319    -8.451143    14.365228    -1.226583    -10.793354    1.925234    2.270303    28.619354    -2.728338    4.271686    -17.332064    8.705374    -4.463180    -16.829105    9.695581    -2.782529    31.787367    -1.894405    11.340963    -17.658609    1.610772    
-58.315586    84.223259    -60.523994    -2.571492    1.422261    24.048826    -0.324000    10.465203    -1.284383    -15.672606    1.839245    2.685661    10.675714    -14.335767    3.781511    -14.697199    -2.168333    16.579531    -28.715935    47.022221    -32.267185    8.746430    -11.141362    -103.608650    108.522629    39.129635    44.364105    26.324558    -0.944279    -3.799673    -28.105087    64.954491    78.953796    -34.121529    -13.491907    42.389450    -125.267563    -8.699856    14.549735    -1.293200    -10.683045    1.898735    2.255501    28.697557    -2.726094    4.295856    -17.397606    8.715214    -4.533439    -17.267281    9.849398    -2.562187    32.779663    -2.286615    11.349047    -17.814365    1.983229    
-58.313114    84.173447    -60.467201    -2.440103    1.359515    24.011669    -0.342002    10.672393    -1.348777    -15.659634    1.934463    2.755503    10.609233    -14.292374    3.826854    -14.715109    -2.144476    16.620026    -28.438438    47.081032    -32.621590    8.717449    -11.070791    -103.589531    109.169357    39.777859    44.516083    26.477905    -0.909883    -3.611847    -27.873053    64.697083    78.615646    -33.808289    -13.342420    42.340393    -125.335457    -8.956719    14.741754    -1.370260    -10.562392    1.896900    2.261317    28.766970    -2.774049    4.324134    -17.472374    8.758471    -4.600099    -17.818411    10.021855    -2.306477    33.946079    -2.683126    11.370725    -17.955439    2.361170    
-58.313358    84.129013    -60.403008    -2.307863    1.309994    23.957712    -0.360839    10.855144    -1.404350    -15.659688    2.025989    2.829591    10.541407    -14.186317    3.871301    -14.712718    -2.172962    16.651649    -28.229673    47.182690    -32.924885    8.751331    -11.079070    -103.542412    109.784409    40.391960    44.456181    26.628054    -0.863055    -3.425423    -27.736031    64.410477    78.404510    -33.455814    -13.158671    42.223434    -125.371887    -9.233108    14.926927    -1.455163    -10.436975    1.916965    2.288273    28.820402    -2.869607    4.353981    -17.551237    8.837921    -4.655536    -18.477762    10.199411    -2.028301    35.257854    -3.050874    11.386761    -18.068821    2.714524    
-58.317608    84.092804    -60.332905    -2.180570    1.277280    23.890779    -0.379107    11.003229    -1.448710    -15.674564    2.099386    2.907384    10.474321    -14.006423    3.914183    -14.721043    -2.146248    16.678223    -28.044533    47.213375    -33.162273    8.666637    -10.876827    -103.550003    110.565880    41.191319    44.688061    26.762527    -0.831259    -3.244216    -27.771845    64.121124    78.420906    -33.118217    -12.953840    41.982777    -125.357613    -9.531994    15.065804    -1.543658    -10.312036    1.950917    2.332832    28.852489    -2.999735    4.381508    -17.628019    8.948174    -4.692375    -19.233530    10.366024    -1.745992    36.679478    -3.354008    11.363311    -18.143942    3.014277    
-58.327995    84.067207    -60.257698    -2.062305    1.262623    23.818092    -0.399495    11.113574    -1.485169    -15.694073    2.148118    2.978422    10.401407    -13.747725    3.943543    -14.705250    -2.162171    16.685200    -27.944248    47.275318    -33.329071    8.567204    -10.748027    -103.539246    111.354630    41.850609    44.583572    26.877401    -0.789082    -3.088595    -27.935167    63.824890    78.624641    -32.750927    -12.708416    41.673725    -125.349083    -9.806973    15.161600    -1.630039    -10.191484    1.984630    2.387127    28.859816    -3.141835    4.400103    -17.696054    9.075718    -4.703590    -20.071890    10.508819    -1.482122    38.180302    -3.553867    11.258302    -18.175585    3.236744    
-58.347466    84.053871    -60.177250    -1.955658    1.265190    23.749159    -0.425609    11.190635    -1.520658    -15.713280    2.155838    3.038108    10.322040    -13.409310    3.961151    -14.671537    -2.181282    16.676409    -27.903456    47.324100    -33.399044    8.425621    -10.506763    -103.554253    112.238579    42.533943    44.556492    26.967228    -0.749532    -2.961695    -28.287571    63.524357    79.098419    -32.384430    -12.462277    41.239174    -125.352882    -10.072806    15.205977    -1.706823    -10.078047    2.001438    2.440413    28.841749    -3.270508    4.400825    -17.750046    9.202025    -4.682303    -20.977280    10.622679    -1.260967    39.735069    -3.610623    11.040141    -18.165819    3.365044    
